<svg width="512" height="512" viewBox="0 0 512 512" fill="none" xmlns="http://www.w3.org/2000/svg">
  <circle cx="256" cy="256" r="215" stroke="white" stroke-width="28" fill="none" opacity="0.8"/>
  <path d="M194.5 177.8 Q194.5 351 267 351 Q334 351 334 286.3 Q334 230.4 267 239.2 M194.5 239.2 L242.3 239.2 Q334 239.2 334 200.1 Q334 161 267 177.8 L194.5 177.8 Z" stroke="white" stroke-width="20" fill="white" fill-opacity="0.1"/>
  <path d="M350.9 222.7 A51.6 51.6 0 0 1 350.9 289.3" stroke="white" stroke-width="13" stroke-linecap="round" fill="none" opacity="0.5"/>
  <path d="M350.9 212 A64.5 64.5 0 0 1 350.9 300" stroke="white" stroke-width="13" stroke-linecap="round" fill="none" opacity="0.58"/>
  <path d="M350.9 194.9 A77.4 77.4 0 0 1 350.9 317.1" stroke="white" stroke-width="13" stroke-linecap="round" fill="none" opacity="0.7"/>
</svg>
